<svg viewBox="0 0 349 207" fill="none" xmlns="http://www.w3.org/2000/svg">
	<path d="M211.7 0.716976C208.6 1.1659 203.4 2.84937 200.2 4.30837C194.4 7.00192 146 39.4367 146 40.7835C146 42.1303 175.3 96.0012 176.1 96.0012C176.5 96.0012 180.6 93.4199 185.2 90.1652C195.7 82.8702 206 77.4831 212.8 75.9118C222.1 73.7795 234.8 74.3406 244.4 77.4831C249.1 79.0543 253.2 80.2889 253.4 80.2889C254.4 80.2889 256.9 70.8614 257.5 64.9132C258.3 57.2815 256.3 46.5073 252.8 39.9979C243.2 21.8164 222.5 13.848 206.2 21.9287C199.6 25.2956 169.1 45.8339 169 47.0684C169 48.303 181 70.1881 181.7 70.1881C182.6 70.1881 188 66.3722 188 65.6988C188 65.3621 186.2 61.883 184.1 57.8426C181.9 53.8023 180.4 50.2109 180.6 49.8742C180.8 49.4253 187.4 44.7116 195.2 39.4367C211.1 28.7748 216.4 26.8668 225 28.6625C239.4 31.6928 249.1 44.5994 249.2 60.7606C249.2 64.801 249 68.2801 248.8 68.5046C248.6 68.7291 246 68.2801 243 67.4945C233.8 64.9132 226.6 64.352 217.9 65.6988C206.4 67.4945 198.4 70.637 187.8 77.7075C182.8 80.9622 178.6 83.5436 178.5 83.4313C178 82.7579 159.3 48.1907 158.2 45.8339C157.1 43.5893 158 42.6914 177.3 29.6726C204.3 11.3789 206.1 10.4811 217.9 9.8077C225.9 9.47101 228.6 9.69547 234 11.8279C242.5 14.9703 249 19.7963 254.4 26.6424C266.7 42.467 269.3 63.342 261.6 83.768C261 85.3393 264.9 88.145 281.7 98.5825C322.4 123.722 319.6 122.263 327.1 122.151C333.4 122.039 333.8 122.151 335.1 124.957C335.8 126.64 336.6 128.324 336.8 128.66C337.4 130.007 330.7 131.915 325.6 131.915C322.8 131.803 318.9 131.13 317 130.456C315.1 129.671 298.6 119.794 280.4 108.571C239.8 83.5436 233.9 81.2989 216.4 84.8903C210.3 86.1249 195 93.4199 195 95.1034C195 95.6645 200.6 106.439 207.5 119.233C214.4 131.915 220 142.689 220 143.026C220 143.475 218.6 144.71 216.9 145.832C214.3 147.515 213.6 147.628 212.5 146.393C211.8 145.495 206.3 135.507 200.2 124.059C194.1 112.611 188.7 102.623 188.2 101.837C187.4 100.49 186.7 100.603 184.1 102.062C182.4 103.072 181 104.531 181 105.204C181 106.102 204.7 150.994 209.5 159.075C210.4 160.646 211.8 160.085 221.2 153.688L231.9 146.393L219.4 123.161C212.5 110.367 206.8 99.4804 206.7 98.9192C206.6 98.3581 209 96.8991 212 95.6645C219 92.8588 231.4 92.6343 239 95.2156C242 96.2257 259.3 106.214 277.3 117.325C295.4 128.436 312.4 138.312 315.1 139.322C322.6 142.128 334.9 141.118 342 137.078C345 135.394 347.8 133.711 348.2 133.262C348.7 132.701 338.4 111.938 336.4 109.581C336.2 109.245 334.4 109.918 332.5 110.928C325.6 114.632 323.7 113.846 297.3 97.5725C283.6 89.1551 272.3 82.0846 272.2 81.9723C272 81.7479 272.4 78.6054 273.1 75.014C274.8 66.0355 274.5 52.5678 272.5 44.7116C264.9 14.9703 238.7 -3.99673 211.7 0.716976Z" fill="black" />
	<path d="M127.3 52.5678C121.7 56.3836 117.1 59.8628 117 60.3117C117 60.7607 122.6 71.5348 129.5 84.3292C136.4 97.0113 141.7 107.898 141.4 108.459C140.4 110.367 129.6 113.06 122.6 113.173C118.7 113.173 112.8 112.275 109.5 111.265C106.2 110.142 89.4 100.49 71.7 89.6041C54.1 78.7176 37.4 68.8413 34.6 67.719C27 64.4643 14.6 65.2499 6.3 69.5147C2.8 71.3104 0 73.2183 0 73.7795C0 75.1262 11 95.889 12.1 96.6746C12.6 97.0113 14.3 96.4502 15.9 95.4401C22.2 91.8487 24.9 92.8588 49.4 107.898C62.1 115.754 73.5 122.824 74.7 123.61C76.8 125.069 76.8 125.294 75.4 131.017C70.6 151.219 76.9 174.563 91 189.602C102 201.162 113.3 206.1 128.9 206.1C142.5 206.1 147.4 203.743 176.7 183.99C190.9 174.339 202.6 166.37 202.7 166.258C203 165.921 174.2 112.611 173.1 111.377C172.4 110.591 168.8 112.499 162.8 116.427C142.3 130.12 135.6 132.476 119 131.579C111.1 131.242 106.8 130.344 101.7 128.212L94.8 125.406L93.2 129.446C92 132.476 91.5 136.853 91.5 145.383C91.5 156.157 91.8 157.728 94.4 163.789C102.8 182.868 121.7 191.959 140 185.562C141.9 184.888 151.7 178.828 161.8 172.094C179.5 160.197 180.1 159.636 178.7 157.392C178 156.045 175.2 150.882 172.5 145.944C169.8 141.006 167.5 136.741 167.4 136.629C167 135.956 163.6 137.415 161.7 139.098C160 140.557 160.1 141.118 163.9 148.076C166.2 152.229 168 155.933 168 156.382C167.9 157.392 141.5 175.124 137.7 176.808C133.6 178.491 122.9 178.154 118 176.247C107.7 172.206 100.1 160.759 99.2 148.189C98.5 137.639 98.7 137.415 105.7 139.435C108.9 140.333 116.2 141.006 122 141.006C138.1 141.118 147.8 137.639 166.2 125.294L169.8 122.824L180.5 142.577C186.6 153.913 190.9 162.779 190.4 163.34C188.4 165.472 152.1 189.714 146.2 192.857C137.4 197.458 125.2 198.356 115.4 194.989C89.6 186.123 76.1 156.269 85 127.763C86.6 122.712 86.7 121.029 85.7 120.019C83 117.325 30.9 85.9004 27.1 84.7781C24.9 84.1047 21.4 83.8803 19.2 84.3292C15.6 85.0026 15.2 84.7781 13.2 81.299L11 77.4831L13.8 76.1363C17.3 74.3406 26.7 74.3406 31.1 76.0241C33 76.6975 47.6 85.3393 63.5 95.2156C100.1 117.886 104.5 120.243 113.2 121.814C125.2 124.171 139.2 121.253 149.7 114.295C153.9 111.601 154 111.377 152.6 108.908C150.2 104.868 128 63.5664 128 63.1175C128 62.5564 135 58.6283 135.4 59.0772C135.6 59.3017 141.3 69.7391 147.9 82.1968C154.6 94.6545 160.5 105.204 161 105.541C162.2 106.439 168.1 102.398 167.6 100.939C167.1 99.5926 137.9 45.4972 137.7 45.4972C137.6 45.4972 132.9 48.7519 127.3 52.5678Z" fill="black" />
</svg>
